<svg width="166" height="35" viewBox="0 0 166 35" fill="none" xmlns="http://www.w3.org/2000/svg">
<path d="M31.9141 5.97342L28.5833 9.91675C27.3566 11.345 26.3518 12.9496 25.6025 14.6768C25.109 15.8314 24.7072 17.0232 24.4008 18.2409C23.4966 21.8168 22.33 25.1593 21 26.5184C19.4173 28.1065 17.2686 29.0008 15.0265 29.0047C12.7844 29.0085 10.6327 28.1215 9.04456 26.5388C7.45647 24.9562 6.56213 22.8074 6.55831 20.5654C6.55448 18.3233 7.44147 16.1715 9.02415 14.5834C10.3833 13.2243 13.7258 12.0576 17.3191 11.1534C18.5379 10.8357 19.7297 10.4222 20.8833 9.91675C22.6172 9.17671 24.2298 8.17969 25.6666 6.95925L29.5925 3.62842C19.2033 10.5876 10.7741 9.26925 7.26248 12.7868C5.35342 14.8699 4.32155 17.6091 4.38177 20.434C4.44199 23.259 5.58966 25.9518 7.58575 27.9516C9.58184 29.9515 12.2725 31.1042 15.0973 31.1697C17.9221 31.2353 20.6633 30.2086 22.75 28.3034C26.25 24.7917 24.955 16.3626 31.9141 5.97342Z" fill="url(#paint0_linear_56_119)"/>
<path d="M19.9383 15.6042C18.9584 14.6276 17.7111 13.9634 16.3539 13.6952C14.9967 13.4271 13.5905 13.5671 12.3128 14.0977C11.0351 14.6282 9.94331 15.5254 9.17522 16.676C8.40712 17.8267 7.99719 19.1791 7.99719 20.5625C7.99719 21.9459 8.40712 23.2984 9.17522 24.449C9.94331 25.5996 11.0351 26.4968 12.3128 27.0273C13.5905 27.5579 14.9967 27.6979 16.3539 27.4298C17.7111 27.1616 18.9584 26.4974 19.9383 25.5208C20.5909 24.8705 21.1087 24.0978 21.462 23.2469C21.8153 22.396 21.9972 21.4838 21.9972 20.5625C21.9972 19.6412 21.8153 18.729 21.462 17.8781C21.1087 17.0272 20.5909 16.2545 19.9383 15.6042Z" fill="white"/>
<path d="M54.25 24.045C53.5189 23.7532 52.88 23.2695 52.4008 22.645C51.9452 22.0154 51.7002 21.258 51.7008 20.4808H54.6991C54.703 20.7293 54.7566 20.9745 54.8568 21.2019C54.957 21.4294 55.1017 21.6344 55.2825 21.805C55.7069 22.1518 56.2461 22.3267 56.7933 22.295C57.3427 22.3242 57.8851 22.1613 58.3275 21.8342C58.5079 21.6977 58.6544 21.5214 58.7556 21.3191C58.8568 21.1167 58.9099 20.8937 58.9108 20.6675C58.9184 20.4851 58.8887 20.3031 58.8235 20.1326C58.7583 19.962 58.659 19.8066 58.5316 19.6758C58.2638 19.4026 57.9392 19.1915 57.5808 19.0575C57.0664 18.8659 56.5427 18.7004 56.0116 18.5617C55.259 18.3585 54.5221 18.1012 53.8066 17.7917C53.231 17.5302 52.7297 17.1292 52.3483 16.625C51.9273 16.0306 51.7216 15.3104 51.765 14.5833C51.7497 13.8336 51.9678 13.0978 52.3891 12.4775C52.828 11.8613 53.4357 11.3852 54.1391 11.1067C54.9499 10.7768 55.819 10.6141 56.6941 10.6283C57.9424 10.5731 59.1736 10.9342 60.1941 11.655C60.6401 11.9889 61.0057 12.4184 61.2641 12.912C61.5225 13.4056 61.6672 13.9507 61.6875 14.5075H58.6075C58.6008 14.2823 58.5451 14.0614 58.4444 13.8599C58.3436 13.6584 58.2002 13.4813 58.0241 13.3408C57.5873 13.0209 57.0541 12.8603 56.5133 12.8858C56.041 12.8601 55.5752 13.005 55.2008 13.2942C55.0368 13.4391 54.908 13.6195 54.8241 13.8216C54.7402 14.0238 54.7034 14.2424 54.7166 14.4608C54.7119 14.6296 54.742 14.7976 54.8053 14.9542C54.8685 15.1108 54.9635 15.2527 55.0841 15.3708C55.3502 15.6209 55.6609 15.8188 56 15.9542C56.3675 16.1 56.8866 16.275 57.5516 16.4675C58.3082 16.675 59.0489 16.9363 59.7683 17.2492C60.3489 17.5131 60.8572 17.9133 61.25 18.4158C61.6735 19.0112 61.8795 19.7341 61.8333 20.4633C61.834 21.1796 61.6317 21.8814 61.25 22.4875C60.8336 23.1338 60.2431 23.6494 59.5466 23.975C58.7202 24.3757 57.8108 24.5755 56.8925 24.5583C55.9861 24.5662 55.0874 24.3917 54.25 24.045Z" fill="white"/>
<path d="M75.11 10.605V12.8625H71.3941V24.5291H68.5941V12.8625H64.8783V10.605H75.11Z" fill="white"/>
<path d="M103.011 23.6367C101.919 23.0458 101.009 22.1666 100.382 21.0949C99.7545 20.0232 99.4331 18.8 99.4525 17.5583C99.4367 16.3204 99.7599 15.1018 100.387 14.0345C101.014 12.9672 101.922 12.0919 103.011 11.5033C104.12 10.9135 105.357 10.605 106.613 10.605C107.869 10.605 109.106 10.9135 110.215 11.5033C111.285 12.0864 112.176 12.9494 112.793 14C113.432 15.0762 113.763 16.307 113.75 17.5583C113.769 18.8207 113.44 20.0638 112.799 21.1517C112.177 22.1997 111.282 23.0587 110.209 23.6367C109.102 24.2265 107.867 24.535 106.613 24.535C105.359 24.535 104.124 24.2265 103.017 23.6367H103.011ZM108.844 21.5425C109.486 21.1688 110.007 20.6179 110.343 19.9558C110.713 19.2116 110.897 18.3891 110.88 17.5583C110.898 16.7312 110.714 15.9123 110.343 15.1725C110.004 14.5165 109.484 13.9718 108.844 13.6033C108.158 13.2469 107.395 13.0609 106.622 13.0609C105.848 13.0609 105.086 13.2469 104.399 13.6033C103.748 13.9636 103.216 14.5072 102.871 15.1667C102.496 15.905 102.309 16.7246 102.328 17.5525C102.31 18.384 102.496 19.2073 102.871 19.95C103.208 20.6152 103.734 21.1669 104.382 21.5367C105.066 21.9003 105.829 22.0904 106.604 22.0904C107.379 22.0904 108.142 21.9003 108.827 21.5367L108.844 21.5425Z" fill="white"/>
<path d="M43.6741 10.5933H40.4133L35.4025 24.5408H38.3366L40.0225 19.6524H40.0166L42.035 13.8308L44.0533 19.6524H44.0475L45.7333 24.5408H48.6908L43.6741 10.5933Z" fill="white"/>
<path d="M157.284 24.5408H154.029L149.013 10.5933H151.953L153.633 15.4874H153.627L155.645 21.3091L157.669 15.4874H157.663L159.343 10.5933H162.301L157.284 24.5408Z" fill="white"/>
<path d="M133.933 13.9067C133.334 12.8556 132.437 12.0052 131.355 11.4626C130.154 10.8697 128.827 10.5755 127.487 10.6051H122.617V24.5351H127.487C128.827 24.5646 130.154 24.2704 131.355 23.6776C132.433 23.1379 133.329 22.2942 133.933 21.2509C134.559 20.1332 134.873 18.8681 134.843 17.5876C134.87 16.3018 134.556 15.0318 133.933 13.9067ZM130.789 20.9592C130.333 21.3795 129.797 21.7032 129.212 21.9107C128.628 22.1182 128.007 22.2053 127.388 22.1667H125.417V12.9617H127.394C128.015 12.922 128.637 13.0103 129.222 13.221C129.807 13.4317 130.342 13.7604 130.795 14.1867C131.205 14.6483 131.519 15.1865 131.719 15.7703C131.919 16.354 132.002 16.9717 131.962 17.5876C132.004 18.1996 131.922 18.8139 131.72 19.3933C131.519 19.9728 131.202 20.5055 130.789 20.9592Z" fill="white"/>
<path d="M119.578 10.605H116.778V24.5291H119.578V10.605Z" fill="white"/>
<path d="M86.24 22.2599H80.9434V18.8999H85.6392V16.6891H80.9434V12.9208H91.1225C91.7357 12.8717 92.344 13.0619 92.82 13.4516C93.0167 13.6431 93.1704 13.8743 93.271 14.1297C93.3716 14.3851 93.4167 14.6591 93.4033 14.9333C93.4167 15.2145 93.3718 15.4954 93.2714 15.7584C93.1711 16.0214 93.0174 16.2608 92.82 16.4616C92.3491 16.862 91.7386 17.0592 91.1225 17.0099C90.5783 17.0095 90.0366 16.9349 89.5125 16.7883L89.145 16.6891L89.8859 18.1591L93.1759 24.5349H96.4134L93.0767 18.8883C94.0268 18.6786 94.8708 18.1366 95.4567 17.3599C95.9384 16.6859 96.216 15.8875 96.2564 15.06C96.2967 14.2325 96.0981 13.4109 95.6842 12.6933C95.2782 12.0245 94.6836 11.4907 93.975 11.1591C93.1153 10.7525 92.1724 10.5528 91.2217 10.5758H78.1667V24.5349H86.2634L86.24 22.2599Z" fill="white"/>
<path d="M140.677 12.88V16.38H145.378V18.5908H140.677V22.2775H145.973V24.5525H137.883V10.605H145.973V12.88H140.677Z" fill="white"/>
<defs>
<linearGradient id="paint0_linear_56_119" x1="7.23914" y1="28.3034" x2="30.7416" y2="4.80092" gradientUnits="userSpaceOnUse">
<stop stop-color="#33FDD8"/>
<stop offset="0.5" stop-color="#7A4AFF"/>
<stop offset="1" stop-color="#45108A"/>
</linearGradient>
</defs>
</svg>
